<svg width="35" height="35" viewBox="0 0 35 35" fill="none" xmlns="http://www.w3.org/2000/svg">
<path fill-rule="evenodd" clip-rule="evenodd" d="M0 17.5C0 7.83502 7.83502 0 17.5 0C27.165 0 35 7.83502 35 17.5C35 27.165 27.165 35 17.5 35C7.83502 35 0 27.165 0 17.5Z" fill="#FFCFCF"/>
<path fill-rule="evenodd" clip-rule="evenodd" d="M24.0645 11.98H10.6548C10.2932 11.98 9.99999 12.2731 9.99999 12.6346C9.99999 12.9961 10.2932 13.2891 10.6548 13.2891H24.0645C24.4261 13.2891 24.7192 12.9961 24.7192 12.6346C24.7192 12.2731 24.4261 11.98 24.0645 11.98Z" fill="#FB3636"/>
<path fill-rule="evenodd" clip-rule="evenodd" d="M22.5745 11.98C22.2128 11.98 21.9197 12.2732 21.9197 12.6348V23.0645C21.9197 23.5251 21.545 23.8997 21.0845 23.8997H13.6347C13.1742 23.8997 12.7995 23.525 12.7995 23.0645V12.6348C12.7995 12.2732 12.5064 11.98 12.1448 11.98C11.7832 11.98 11.49 12.2732 11.49 12.6348V23.0645C11.49 24.2472 12.4521 25.2093 13.6347 25.2093H21.0846C22.2672 25.2093 23.2293 24.2471 23.2293 23.0645V12.6348C23.2293 12.2732 22.9361 11.98 22.5745 11.98Z" fill="#FB3636"/>
<path fill-rule="evenodd" clip-rule="evenodd" d="M18.8517 9H15.8677C14.6835 9 13.7201 9.96204 13.7201 11.1446V12.6345C13.7201 12.9961 14.0137 13.2892 14.3758 13.2892C14.7379 13.2892 15.0314 12.9961 15.0314 12.6345V11.1446C15.0314 10.6841 15.4066 10.3095 15.8677 10.3095H18.8517C19.3128 10.3095 19.688 10.6841 19.688 11.1446V12.6345C19.688 12.9961 19.9815 13.2892 20.3436 13.2892C20.7057 13.2892 20.9993 12.9961 20.9993 12.6345V11.1446C20.9993 9.96207 20.0359 9 18.8517 9H18.8517Z" fill="#FB3636"/>
<path fill-rule="evenodd" clip-rule="evenodd" d="M15.8697 15.7001C15.5054 15.7001 15.2101 15.9937 15.2101 16.356V20.8335C15.2101 21.1957 15.5054 21.4893 15.8697 21.4893C16.2339 21.4893 16.5293 21.1957 16.5293 20.8335V16.356C16.5293 15.9937 16.234 15.7001 15.8697 15.7001Z" fill="#FB3636"/>
<path fill-rule="evenodd" clip-rule="evenodd" d="M18.8497 15.7001C18.4854 15.7001 18.1901 15.9937 18.1901 16.356V20.8335C18.1901 21.1957 18.4854 21.4893 18.8497 21.4893C19.214 21.4893 19.5093 21.1957 19.5093 20.8335V16.356C19.5093 15.9937 19.214 15.7001 18.8497 15.7001Z" fill="#FB3636"/>
</svg>
